<mxfile host="app.diagrams.net" agent="Mozilla/5.0 (Macintosh; Intel Mac OS X 10_15_7) AppleWebKit/537.36 (KHTML, like Gecko) Chrome/128.0.0.0 Safari/537.36" version="24.7.12">
  <diagram name="第 1 页" id="xSBUUF7zfyPPVn0Ek9fH">
    <mxGraphModel dx="753" dy="476" grid="1" gridSize="10" guides="1" tooltips="1" connect="1" arrows="1" fold="1" page="1" pageScale="1" pageWidth="827" pageHeight="1169" background="#000000" math="0" shadow="0">
      <root>
        <mxCell id="0" />
        <mxCell id="1" parent="0" />
        <mxCell id="6oIkDb-312-8pM6s9ORh-19" value="" style="edgeStyle=orthogonalEdgeStyle;rounded=0;sketch=1;hachureGap=4;jiggle=2;curveFitting=1;orthogonalLoop=1;jettySize=auto;html=1;fontFamily=Long Cang;fontSource=https%3A%2F%2Ffonts.googleapis.com%2Fcss%3Ffamily%3DLong%2BCang;fontSize=16;" parent="1" target="6oIkDb-312-8pM6s9ORh-18" edge="1">
          <mxGeometry relative="1" as="geometry">
            <mxPoint x="370" y="160.0000000000001" as="sourcePoint" />
          </mxGeometry>
        </mxCell>
        <mxCell id="6oIkDb-312-8pM6s9ORh-20" value="" style="edgeStyle=orthogonalEdgeStyle;rounded=0;sketch=1;hachureGap=4;jiggle=2;curveFitting=1;orthogonalLoop=1;jettySize=auto;html=1;fontFamily=Long Cang;fontSource=https%3A%2F%2Ffonts.googleapis.com%2Fcss%3Ffamily%3DLong%2BCang;strokeColor=#FFFFFF;fontSize=16;exitX=0.5;exitY=1;exitDx=0;exitDy=0;" parent="1" source="o6kX1AXqSNB2H2lRawLF-7" target="6oIkDb-312-8pM6s9ORh-18" edge="1">
          <mxGeometry relative="1" as="geometry">
            <mxPoint x="370" y="160.0000000000001" as="sourcePoint" />
          </mxGeometry>
        </mxCell>
        <mxCell id="6oIkDb-312-8pM6s9ORh-22" value="" style="edgeStyle=orthogonalEdgeStyle;rounded=0;sketch=1;hachureGap=4;jiggle=2;curveFitting=1;orthogonalLoop=1;jettySize=auto;html=1;fontFamily=Long Cang;fontSource=https%3A%2F%2Ffonts.googleapis.com%2Fcss%3Ffamily%3DLong%2BCang;strokeColor=#FFFFFF;fontSize=16;" parent="1" source="6oIkDb-312-8pM6s9ORh-18" target="6oIkDb-312-8pM6s9ORh-21" edge="1">
          <mxGeometry relative="1" as="geometry" />
        </mxCell>
        <mxCell id="6oIkDb-312-8pM6s9ORh-18" value="&lt;font style=&quot;font-size: 16px;&quot; color=&quot;#ffffff&quot;&gt;选择交易记录&lt;/font&gt;" style="whiteSpace=wrap;html=1;fontFamily=Long Cang;fillColor=none;strokeColor=#FFFFFF;sketch=1;hachureGap=4;jiggle=2;curveFitting=1;fontSource=https%3A%2F%2Ffonts.googleapis.com%2Fcss%3Ffamily%3DLong%2BCang;fontSize=16;" parent="1" vertex="1">
          <mxGeometry x="310" y="200" width="120" height="60" as="geometry" />
        </mxCell>
        <mxCell id="6oIkDb-312-8pM6s9ORh-29" value="" style="edgeStyle=orthogonalEdgeStyle;rounded=0;sketch=1;hachureGap=4;jiggle=2;curveFitting=1;orthogonalLoop=1;jettySize=auto;html=1;fontFamily=Long Cang;fontSource=https%3A%2F%2Ffonts.googleapis.com%2Fcss%3Ffamily%3DLong%2BCang;strokeColor=#FFFFFF;curved=0;fontSize=16;entryX=0.5;entryY=0;entryDx=0;entryDy=0;" parent="1" target="o6kX1AXqSNB2H2lRawLF-1" edge="1">
          <mxGeometry relative="1" as="geometry">
            <mxPoint x="369.7" y="375" as="sourcePoint" />
            <mxPoint x="390" y="420" as="targetPoint" />
          </mxGeometry>
        </mxCell>
        <mxCell id="6oIkDb-312-8pM6s9ORh-21" value="&lt;font style=&quot;font-size: 16px;&quot; color=&quot;#ffffff&quot;&gt;查找原始融信为交易记录关联母融信的融信&lt;/font&gt;" style="whiteSpace=wrap;html=1;fontFamily=Long Cang;fillColor=none;strokeColor=#FFFFFF;sketch=1;hachureGap=4;jiggle=2;curveFitting=1;fontSource=https%3A%2F%2Ffonts.googleapis.com%2Fcss%3Ffamily%3DLong%2BCang;fontSize=16;" parent="1" vertex="1">
          <mxGeometry x="310" y="305" width="120" height="70" as="geometry" />
        </mxCell>
        <mxCell id="6oIkDb-312-8pM6s9ORh-23" value="&lt;font color=&quot;#ff6666&quot; style=&quot;font-size: 16px;&quot;&gt;核心企业&lt;/font&gt;&lt;font style=&quot;font-size: 16px;&quot; color=&quot;#ffffff&quot;&gt;开立的交易记录&lt;/font&gt;" style="shape=note;whiteSpace=wrap;html=1;backgroundOutline=1;darkOpacity=0.05;sketch=1;hachureGap=4;jiggle=2;curveFitting=1;fontFamily=Long Cang;fontSource=https%3A%2F%2Ffonts.googleapis.com%2Fcss%3Ffamily%3DLong%2BCang;fillColor=none;strokeColor=#FFFFFF;fontSize=16;" parent="1" vertex="1">
          <mxGeometry x="500" y="180" width="220" height="100" as="geometry" />
        </mxCell>
        <mxCell id="6oIkDb-312-8pM6s9ORh-24" style="edgeStyle=orthogonalEdgeStyle;rounded=0;sketch=1;hachureGap=4;jiggle=2;curveFitting=1;orthogonalLoop=1;jettySize=auto;html=1;entryX=0;entryY=0.5;entryDx=0;entryDy=0;entryPerimeter=0;fontFamily=Long Cang;fontSource=https%3A%2F%2Ffonts.googleapis.com%2Fcss%3Ffamily%3DLong%2BCang;strokeColor=#FFFFFF;fontSize=16;" parent="1" source="6oIkDb-312-8pM6s9ORh-18" target="6oIkDb-312-8pM6s9ORh-23" edge="1">
          <mxGeometry relative="1" as="geometry" />
        </mxCell>
        <mxCell id="6oIkDb-312-8pM6s9ORh-25" value="&lt;font style=&quot;font-size: 16px;&quot; color=&quot;#ffffff&quot;&gt;1、融信必须全部持有&lt;/font&gt;&lt;div style=&quot;font-size: 16px;&quot;&gt;&lt;font style=&quot;font-size: 16px;&quot; color=&quot;#ffffff&quot;&gt;2、融信状态&lt;/font&gt;&lt;font style=&quot;background-color: initial;&quot; color=&quot;#ffffff&quot;&gt;为&lt;/font&gt;&lt;font style=&quot;background-color: initial;&quot;&gt;&lt;font color=&quot;#ff6666&quot;&gt;available（transferring？）&lt;/font&gt;&lt;/font&gt;&lt;/div&gt;&lt;div style=&quot;font-size: 16px;&quot;&gt;&lt;div style=&quot;font-size: 16px;&quot;&gt;&lt;div style=&quot;font-size: 16px;&quot;&gt;&lt;div style=&quot;font-size: 16px;&quot;&gt;&lt;font style=&quot;font-size: 16px;&quot; color=&quot;#ffffff&quot;&gt;3、融信兑付状态&lt;/font&gt;&lt;span style=&quot;background-color: initial; color: rgb(255, 255, 255);&quot;&gt;为&lt;/span&gt;&lt;span style=&quot;background-color: initial;&quot;&gt;&lt;font color=&quot;#ff6666&quot;&gt;未兑付&lt;/font&gt;&lt;/span&gt;&lt;/div&gt;&lt;div style=&quot;font-size: 16px;&quot;&gt;&lt;font style=&quot;font-size: 16px;&quot; color=&quot;#ffffff&quot;&gt;4、质押状态&lt;/font&gt;&lt;span style=&quot;color: rgb(255, 255, 255); background-color: initial;&quot;&gt;为&lt;/span&gt;&lt;span style=&quot;background-color: initial;&quot;&gt;&lt;font color=&quot;#ff6666&quot;&gt;未质押&lt;/font&gt;&lt;/span&gt;&lt;/div&gt;&lt;/div&gt;&lt;/div&gt;&lt;/div&gt;" style="shape=note;whiteSpace=wrap;html=1;backgroundOutline=1;darkOpacity=0.05;sketch=1;hachureGap=4;jiggle=2;curveFitting=1;fontFamily=Long Cang;fontSource=https%3A%2F%2Ffonts.googleapis.com%2Fcss%3Ffamily%3DLong%2BCang;fillColor=none;strokeColor=#FFFFFF;fontSize=16;" parent="1" vertex="1">
          <mxGeometry x="500" y="290" width="220" height="100" as="geometry" />
        </mxCell>
        <mxCell id="6oIkDb-312-8pM6s9ORh-26" style="edgeStyle=orthogonalEdgeStyle;rounded=0;sketch=1;hachureGap=4;jiggle=2;curveFitting=1;orthogonalLoop=1;jettySize=auto;html=1;entryX=0;entryY=0.5;entryDx=0;entryDy=0;entryPerimeter=0;fontFamily=Long Cang;fontSource=https%3A%2F%2Ffonts.googleapis.com%2Fcss%3Ffamily%3DLong%2BCang;strokeColor=#FFFFFF;fontSize=16;" parent="1" edge="1">
          <mxGeometry relative="1" as="geometry">
            <mxPoint x="430" y="339.62" as="sourcePoint" />
            <mxPoint x="500" y="339.62" as="targetPoint" />
          </mxGeometry>
        </mxCell>
        <mxCell id="6oIkDb-312-8pM6s9ORh-44" value="" style="edgeStyle=orthogonalEdgeStyle;rounded=0;sketch=1;hachureGap=4;jiggle=2;curveFitting=1;orthogonalLoop=1;jettySize=auto;html=1;fontFamily=Long Cang;fontSource=https%3A%2F%2Ffonts.googleapis.com%2Fcss%3Ffamily%3DLong%2BCang;strokeColor=#FFFFFF;fontSize=16;entryX=0.5;entryY=0;entryDx=0;entryDy=0;" parent="1" source="6oIkDb-312-8pM6s9ORh-28" target="o6kX1AXqSNB2H2lRawLF-10" edge="1">
          <mxGeometry relative="1" as="geometry">
            <mxPoint x="189.9696969696971" y="665" as="targetPoint" />
          </mxGeometry>
        </mxCell>
        <mxCell id="6oIkDb-312-8pM6s9ORh-45" value="拒绝" style="edgeLabel;html=1;align=center;verticalAlign=bottom;resizable=0;points=[];sketch=1;hachureGap=4;jiggle=2;curveFitting=1;fontFamily=Long Cang;fontSource=https%3A%2F%2Ffonts.googleapis.com%2Fcss%3Ffamily%3DLong%2BCang;labelBackgroundColor=none;fontColor=#FFFFFF;fontSize=16;" parent="6oIkDb-312-8pM6s9ORh-44" vertex="1" connectable="0">
          <mxGeometry x="-0.2606" y="1" relative="1" as="geometry">
            <mxPoint as="offset" />
          </mxGeometry>
        </mxCell>
        <mxCell id="6oIkDb-312-8pM6s9ORh-28" value="&lt;font style=&quot;font-size: 16px;&quot; color=&quot;#ffffff&quot;&gt;审核&lt;/font&gt;" style="rhombus;whiteSpace=wrap;html=1;fontFamily=Long Cang;fillColor=none;strokeColor=#FFFFFF;sketch=1;hachureGap=4;jiggle=2;curveFitting=1;fontSource=https%3A%2F%2Ffonts.googleapis.com%2Fcss%3Ffamily%3DLong%2BCang;fontSize=16;" parent="1" vertex="1">
          <mxGeometry x="330" y="540" width="80" height="80" as="geometry" />
        </mxCell>
        <mxCell id="6oIkDb-312-8pM6s9ORh-30" value="" style="edgeStyle=orthogonalEdgeStyle;rounded=0;sketch=1;hachureGap=4;jiggle=2;curveFitting=1;orthogonalLoop=1;jettySize=auto;html=1;fontFamily=Long Cang;fontSource=https%3A%2F%2Ffonts.googleapis.com%2Fcss%3Ffamily%3DLong%2BCang;strokeColor=#FFFFFF;curved=0;fontSize=16;" parent="1" edge="1">
          <mxGeometry relative="1" as="geometry">
            <mxPoint x="370" y="620" as="sourcePoint" />
            <mxPoint x="370" y="660" as="targetPoint" />
          </mxGeometry>
        </mxCell>
        <mxCell id="6oIkDb-312-8pM6s9ORh-34" value="通过" style="edgeLabel;html=1;align=center;verticalAlign=middle;resizable=0;points=[];sketch=1;hachureGap=4;jiggle=2;curveFitting=1;fontFamily=Long Cang;fontSource=https%3A%2F%2Ffonts.googleapis.com%2Fcss%3Ffamily%3DLong%2BCang;labelBackgroundColor=none;fontColor=#FFFFFF;fontSize=16;" parent="6oIkDb-312-8pM6s9ORh-30" vertex="1" connectable="0">
          <mxGeometry x="-0.3137" y="-2" relative="1" as="geometry">
            <mxPoint as="offset" />
          </mxGeometry>
        </mxCell>
        <mxCell id="6oIkDb-312-8pM6s9ORh-32" value="&lt;font style=&quot;font-size: 16px;&quot; color=&quot;#ffffff&quot;&gt;更新融信相关状态&lt;/font&gt;" style="whiteSpace=wrap;html=1;fontFamily=Long Cang;fillColor=none;strokeColor=#FFFFFF;sketch=1;hachureGap=4;jiggle=2;curveFitting=1;fontSource=https%3A%2F%2Ffonts.googleapis.com%2Fcss%3Ffamily%3DLong%2BCang;fontSize=16;" parent="1" vertex="1">
          <mxGeometry x="310" y="660" width="120" height="70" as="geometry" />
        </mxCell>
        <mxCell id="6oIkDb-312-8pM6s9ORh-35" value="&lt;font style=&quot;font-size: 16px;&quot; color=&quot;#ffffff&quot;&gt;1、修改融信兑付状态&lt;/font&gt;&lt;div&gt;&lt;font style=&quot;font-size: 16px;&quot; color=&quot;#ffffff&quot;&gt;为&lt;/font&gt;&lt;font color=&quot;#ff6666&quot; style=&quot;font-size: 16px;&quot;&gt;已兑付&lt;/font&gt;&lt;div style=&quot;font-size: 16px;&quot;&gt;&lt;font style=&quot;font-size: 16px;&quot; color=&quot;#ffffff&quot;&gt;2、修改融信兑付类型&lt;/font&gt;&lt;/div&gt;&lt;div style=&quot;font-size: 16px;&quot;&gt;&lt;font style=&quot;font-size: 16px;&quot; color=&quot;#ffffff&quot;&gt;为&lt;/font&gt;&lt;font color=&quot;#ff6666&quot; style=&quot;font-size: 16px;&quot;&gt;退款兑付&lt;/font&gt;&lt;/div&gt;&lt;/div&gt;" style="shape=note;whiteSpace=wrap;html=1;backgroundOutline=1;darkOpacity=0.05;sketch=1;hachureGap=4;jiggle=2;curveFitting=1;fontFamily=Long Cang;fontSource=https%3A%2F%2Ffonts.googleapis.com%2Fcss%3Ffamily%3DLong%2BCang;fillColor=none;strokeColor=#FFFFFF;fontSize=16;" parent="1" vertex="1">
          <mxGeometry x="500" y="645" width="240" height="100" as="geometry" />
        </mxCell>
        <mxCell id="6oIkDb-312-8pM6s9ORh-36" style="edgeStyle=orthogonalEdgeStyle;rounded=0;sketch=1;hachureGap=4;jiggle=2;curveFitting=1;orthogonalLoop=1;jettySize=auto;html=1;entryX=0;entryY=0.5;entryDx=0;entryDy=0;entryPerimeter=0;fontFamily=Long Cang;fontSource=https%3A%2F%2Ffonts.googleapis.com%2Fcss%3Ffamily%3DLong%2BCang;strokeColor=#FFFFFF;fontSize=16;" parent="1" edge="1">
          <mxGeometry relative="1" as="geometry">
            <mxPoint x="430" y="694.62" as="sourcePoint" />
            <mxPoint x="500" y="694.62" as="targetPoint" />
          </mxGeometry>
        </mxCell>
        <mxCell id="6oIkDb-312-8pM6s9ORh-37" value="" style="edgeStyle=orthogonalEdgeStyle;rounded=0;sketch=1;hachureGap=4;jiggle=2;curveFitting=1;orthogonalLoop=1;jettySize=auto;html=1;fontFamily=Long Cang;fontSource=https%3A%2F%2Ffonts.googleapis.com%2Fcss%3Ffamily%3DLong%2BCang;strokeColor=#FFFFFF;curved=0;fontSize=16;" parent="1" edge="1">
          <mxGeometry relative="1" as="geometry">
            <mxPoint x="370" y="730" as="sourcePoint" />
            <mxPoint x="370" y="770" as="targetPoint" />
          </mxGeometry>
        </mxCell>
        <mxCell id="6oIkDb-312-8pM6s9ORh-46" style="edgeStyle=orthogonalEdgeStyle;rounded=0;sketch=1;hachureGap=4;jiggle=2;curveFitting=1;orthogonalLoop=1;jettySize=auto;html=1;fontFamily=Long Cang;fontSource=https%3A%2F%2Ffonts.googleapis.com%2Fcss%3Ffamily%3DLong%2BCang;strokeColor=#FFFFFF;entryX=0.5;entryY=1;entryDx=0;entryDy=0;fontSize=16;" parent="1" source="6oIkDb-312-8pM6s9ORh-39" target="o6kX1AXqSNB2H2lRawLF-10" edge="1">
          <mxGeometry relative="1" as="geometry">
            <mxPoint x="189.9999999999999" y="725" as="targetPoint" />
          </mxGeometry>
        </mxCell>
        <mxCell id="6oIkDb-312-8pM6s9ORh-39" value="&lt;font style=&quot;font-size: 16px;&quot; color=&quot;#ffffff&quot;&gt;返还核心企业开立额度&lt;/font&gt;" style="whiteSpace=wrap;html=1;fontFamily=Long Cang;fillColor=none;strokeColor=#FFFFFF;sketch=1;hachureGap=4;jiggle=2;curveFitting=1;fontSource=https%3A%2F%2Ffonts.googleapis.com%2Fcss%3Ffamily%3DLong%2BCang;fontSize=16;" parent="1" vertex="1">
          <mxGeometry x="310" y="770" width="120" height="70" as="geometry" />
        </mxCell>
        <mxCell id="o6kX1AXqSNB2H2lRawLF-3" style="edgeStyle=orthogonalEdgeStyle;rounded=0;sketch=1;hachureGap=4;jiggle=2;curveFitting=1;orthogonalLoop=1;jettySize=auto;html=1;entryX=0.5;entryY=0;entryDx=0;entryDy=0;fontFamily=Architects Daughter;fontSource=https%3A%2F%2Ffonts.googleapis.com%2Fcss%3Ffamily%3DArchitects%2BDaughter;strokeColor=#FFFFFF;" edge="1" parent="1" source="o6kX1AXqSNB2H2lRawLF-1" target="6oIkDb-312-8pM6s9ORh-28">
          <mxGeometry relative="1" as="geometry" />
        </mxCell>
        <mxCell id="o6kX1AXqSNB2H2lRawLF-1" value="&lt;font color=&quot;#ffffff&quot;&gt;创建退款记录&lt;/font&gt;" style="whiteSpace=wrap;html=1;fontFamily=Long Cang;fillColor=none;strokeColor=#FFFFFF;sketch=1;hachureGap=4;jiggle=2;curveFitting=1;fontSource=https%3A%2F%2Ffonts.googleapis.com%2Fcss%3Ffamily%3DLong%2BCang;fontSize=16;" vertex="1" parent="1">
          <mxGeometry x="310" y="420" width="120" height="70" as="geometry" />
        </mxCell>
        <mxCell id="o6kX1AXqSNB2H2lRawLF-5" value="&lt;font color=&quot;#ffffff&quot;&gt;1、退款记录关联&lt;/font&gt;&lt;span style=&quot;color: rgb(255, 255, 255);&quot;&gt;交易&lt;/span&gt;&lt;span style=&quot;background-color: initial; color: rgb(255, 255, 255);&quot;&gt;记录&lt;/span&gt;&lt;div&gt;&lt;span style=&quot;background-color: initial; color: rgb(255, 255, 255);&quot;&gt;为&lt;/span&gt;&lt;span style=&quot;background-color: initial;&quot;&gt;&lt;font color=&quot;#ff6666&quot;&gt;（新起交易记录）&lt;/font&gt;&lt;/span&gt;&lt;div&gt;&lt;div&gt;&lt;div&gt;&lt;span style=&quot;color: rgb(255, 255, 255);&quot;&gt;2、退款记录关联融信记录&lt;/span&gt;&lt;/div&gt;&lt;div&gt;&lt;span style=&quot;color: rgb(255, 255, 255);&quot;&gt;为&lt;/span&gt;&lt;font color=&quot;#ff6666&quot;&gt;母融信&lt;/font&gt;&lt;font color=&quot;#ffffff&quot;&gt;&lt;br&gt;&lt;/font&gt;&lt;/div&gt;&lt;/div&gt;&lt;/div&gt;&lt;/div&gt;" style="shape=note;whiteSpace=wrap;html=1;backgroundOutline=1;darkOpacity=0.05;sketch=1;hachureGap=4;jiggle=2;curveFitting=1;fontFamily=Long Cang;fontSource=https%3A%2F%2Ffonts.googleapis.com%2Fcss%3Ffamily%3DLong%2BCang;fillColor=none;strokeColor=#FFFFFF;fontSize=16;" vertex="1" parent="1">
          <mxGeometry x="500" y="405" width="220" height="125" as="geometry" />
        </mxCell>
        <mxCell id="o6kX1AXqSNB2H2lRawLF-6" style="edgeStyle=orthogonalEdgeStyle;rounded=0;sketch=1;hachureGap=4;jiggle=2;curveFitting=1;orthogonalLoop=1;jettySize=auto;html=1;entryX=0;entryY=0.5;entryDx=0;entryDy=0;entryPerimeter=0;fontFamily=Long Cang;fontSource=https%3A%2F%2Ffonts.googleapis.com%2Fcss%3Ffamily%3DLong%2BCang;strokeColor=#FFFFFF;fontSize=16;" edge="1" parent="1">
          <mxGeometry relative="1" as="geometry">
            <mxPoint x="430" y="454.62" as="sourcePoint" />
            <mxPoint x="500" y="454.62" as="targetPoint" />
          </mxGeometry>
        </mxCell>
        <mxCell id="o6kX1AXqSNB2H2lRawLF-7" value="&lt;span style=&quot;color: rgb(255, 255, 255); font-family: &amp;quot;Long Cang&amp;quot;; font-size: 16px;&quot;&gt;发起退款&lt;/span&gt;" style="ellipse;whiteSpace=wrap;html=1;sketch=1;hachureGap=4;jiggle=2;curveFitting=1;fontFamily=Architects Daughter;fontSource=https%3A%2F%2Ffonts.googleapis.com%2Fcss%3Ffamily%3DArchitects%2BDaughter;fillColor=none;strokeColor=#FFFFFF;" vertex="1" parent="1">
          <mxGeometry x="310" y="80" width="120" height="80" as="geometry" />
        </mxCell>
        <mxCell id="o6kX1AXqSNB2H2lRawLF-10" value="&lt;span style=&quot;color: rgb(255, 255, 255); font-family: &amp;quot;Long Cang&amp;quot;; font-size: 16px;&quot;&gt;流程结束&lt;/span&gt;" style="ellipse;whiteSpace=wrap;html=1;sketch=1;hachureGap=4;jiggle=2;curveFitting=1;fontFamily=Architects Daughter;fontSource=https%3A%2F%2Ffonts.googleapis.com%2Fcss%3Ffamily%3DArchitects%2BDaughter;fillColor=none;strokeColor=#FFFFFF;" vertex="1" parent="1">
          <mxGeometry x="150" y="655" width="120" height="80" as="geometry" />
        </mxCell>
      </root>
    </mxGraphModel>
  </diagram>
</mxfile>
